<?xml version="1.0" standalone="no"?>
<!DOCTYPE svg PUBLIC "-//W3C//DTD SVG 20010904//EN"
 "http://www.w3.org/TR/2001/REC-SVG-20010904/DTD/svg10.dtd">
<svg version="1.0" xmlns="http://www.w3.org/2000/svg"
 width="214.000000pt" height="124.000000pt" viewBox="0 0 214.000000 124.000000"
 preserveAspectRatio="xMidYMid meet">

<g transform="translate(0.000000,124.000000) scale(0.100000,-0.100000)"
fill="#000000" stroke="none">
<path d="M1390 786 c0 -2 24 -22 54 -45 61 -46 100 -93 110 -132 5 -25 1 -29
-77 -66 -129 -63 -228 -172 -226 -250 l1 -28 7 26 c14 45 32 73 79 122 50 51
67 57 76 29 4 -13 -8 -33 -39 -65 -24 -26 -47 -47 -50 -47 -3 0 -6 10 -6 23
-1 18 -2 18 -6 4 -3 -10 -2 -30 2 -44 6 -25 7 -24 59 33 51 56 86 71 52 22
-23 -32 -20 -97 5 -128 l20 -25 -15 32 c-22 43 -20 86 4 114 14 17 20 20 20 9
0 -8 12 -28 26 -45 l25 -30 -17 40 c-9 22 -27 61 -40 87 -13 26 -24 52 -24 57
0 12 150 61 185 61 13 0 26 4 29 8 9 16 -36 92 -82 138 -46 46 -172 119 -172
100z"/>
<path d="M1052 727 c-53 -28 -112 -74 -112 -87 0 -6 31 6 69 25 91 46 163 53
286 27 50 -11 92 -18 94 -16 6 5 -111 54 -154 64 -71 17 -137 12 -183 -13z"/>
<path d="M440 732 c8 -5 44 -12 80 -15 96 -9 137 -24 184 -66 22 -21 58 -44
79 -51 45 -14 162 -9 179 8 9 9 -1 10 -40 5 -71 -8 -133 12 -187 59 -24 22
-59 44 -77 49 -45 13 -237 23 -218 11z"/>
<path d="M545 629 c9 -13 130 -73 180 -89 59 -18 61 -25 19 -64 l-38 -35 -26
19 c-26 18 -57 50 -49 50 2 0 20 -4 39 -10 31 -8 33 -8 17 4 -10 8 -34 17 -54
21 -20 3 -52 18 -70 33 -38 28 -46 24 -60 -28 -3 -14 -21 -38 -40 -53 -70 -60
-96 -171 -58 -251 17 -36 77 -96 95 -96 18 0 10 -20 -7 -22 -80 -7 238 -16
572 -16 333 0 638 9 578 16 -21 3 -15 18 11 30 34 15 73 70 87 123 16 61 -1
125 -47 176 l-34 38 25 -39 c46 -71 53 -141 19 -206 -29 -58 -111 -110 -174
-110 -35 0 -96 23 -122 47 -10 9 -18 12 -18 7 0 -4 12 -18 26 -29 l27 -21
-376 0 -376 0 38 32 c20 18 45 51 56 73 19 44 29 50 39 26 4 -13 33 -15 183
-13 l178 2 -120 6 c-66 4 -142 8 -170 9 -48 1 -51 3 -77 45 -16 24 -28 47 -28
52 0 5 21 17 47 26 52 19 62 13 63 -32 0 -20 2 -22 10 -10 17 26 11 58 -16 87
-15 16 -24 21 -21 11 4 -12 -7 -22 -44 -37 l-49 -22 -30 23 c-17 12 -30 25
-30 28 0 4 25 25 56 48 l55 41 -63 32 c-73 37 -231 93 -223 78z m92 -158 c127
-95 140 -121 62 -121 -28 0 -39 -4 -36 -12 4 -12 26 -13 74 -3 16 4 27 -3 43
-25 21 -29 21 -29 1 -67 -39 -76 -97 -113 -176 -113 -81 0 -141 39 -176 115
-37 80 -18 150 64 232 29 29 55 53 59 53 4 0 42 -27 85 -59z"/>
<path d="M542 403 c-17 -7 -42 -57 -42 -86 0 -13 7 -32 16 -43 14 -18 15 -18
4 5 -17 33 -4 87 27 111 25 19 23 24 -5 13z"/>
<path d="M554 358 l-19 -23 23 19 c12 11 22 21 22 23 0 8 -8 2 -26 -19z"/>
<path d="M619 353 c-13 -16 -12 -17 4 -4 16 13 21 21 13 21 -2 0 -10 -8 -17
-17z"/>
<path d="M671 301 c-1 -8 -9 -24 -18 -35 -16 -20 -16 -20 6 0 13 12 21 28 18
35 -4 11 -6 11 -6 0z"/>
<path d="M540 293 c0 -5 10 -18 23 -29 l22 -19 -20 25 c-11 14 -21 27 -22 29
-2 2 -3 0 -3 -6z"/>
<path d="M1250 571 c-97 -36 -185 -78 -199 -94 -7 -10 -2 -33 20 -88 l29 -74
-2 62 c-4 80 12 97 152 169 116 58 116 68 0 25z"/>
<path d="M1548 499 c-44 -22 -44 -24 -19 -103 14 -45 19 -54 24 -37 3 11 1 24
-4 27 -5 3 -9 11 -8 17 1 7 -1 20 -5 30 -13 27 1 46 46 67 26 12 35 19 23 19
-11 0 -37 -9 -57 -20z"/>
<path d="M1287 287 c-4 -10 -7 -30 -7 -43 l0 -24 -162 -1 c-194 -1 -167 -13
53 -24 146 -7 152 -6 144 11 -4 11 -11 37 -14 59 -5 30 -8 36 -14 22z"/>
</g>
</svg>
